<svg xmlns="http://www.w3.org/2000/svg" viewBox="0 0 691 684" role="img" aria-label="AudioWRT">
<g fill="#000">
<path d="M 690 365 L 688 363 L 641 363 L 639 364 L 633 407 L 629 423 L 618 454 L 599 491 L 586 511 L 571 531 L 541 562 L 528 573 L 503 592 L 481 605 L 462 614 L 434 624 L 422 626 L 405 631 L 369 636 L 368 637 L 368 647 L 367 648 L 367 669 L 368 670 L 367 680 L 369 683 L 382 683 L 383 682 L 393 682 L 394 681 L 414 679 L 445 672 L 477 661 L 505 648 L 532 632 L 555 616 L 575 599 L 605 569 L 615 557 L 646 512 L 659 488 L 672 456 L 681 427 L 688 394 Z"/>
<path d="M 1 365 L 0 368 L 1 384 L 9 425 L 18 454 L 32 487 L 41 505 L 66 543 L 87 570 L 116 599 L 135 615 L 164 635 L 183 646 L 219 663 L 250 673 L 277 679 L 291 680 L 299 682 L 309 682 L 310 683 L 324 683 L 326 681 L 326 638 L 324 636 L 297 633 L 276 629 L 272 627 L 268 627 L 253 623 L 250 621 L 244 620 L 228 614 L 209 605 L 182 588 L 146 558 L 133 545 L 112 520 L 91 489 L 78 465 L 70 446 L 62 421 L 56 394 L 53 365 L 51 363 L 3 363 Z"/>
<path d="M 538 279 L 524 284 L 516 292 L 511 303 L 511 401 L 516 412 L 525 420 L 535 424 L 547 424 L 555 421 L 562 416 L 569 406 L 571 400 L 571 303 L 569 297 L 561 286 L 549 280 Z"/>
<path d="M 150 279 L 139 282 L 133 285 L 124 296 L 121 304 L 121 399 L 125 409 L 133 418 L 147 424 L 157 424 L 164 422 L 171 418 L 178 411 L 183 398 L 183 314 L 182 313 L 182 301 L 176 290 L 166 282 L 155 279 Z"/>
<path d="M 445 214 L 444 215 L 437 215 L 426 220 L 416 232 L 413 241 L 413 456 L 417 467 L 427 477 L 438 482 L 453 482 L 459 480 L 467 475 L 474 466 L 477 458 L 477 443 L 478 442 L 478 431 L 477 430 L 478 427 L 478 422 L 477 421 L 477 411 L 478 410 L 477 408 L 477 374 L 478 373 L 477 369 L 477 349 L 478 348 L 478 343 L 477 342 L 477 315 L 478 314 L 477 283 L 478 282 L 478 256 L 477 255 L 478 254 L 478 243 L 476 235 L 473 229 L 465 220 L 454 215 Z"/>
<path d="M 245 214 L 237 216 L 229 220 L 223 226 L 217 238 L 217 255 L 216 256 L 216 454 L 218 462 L 221 468 L 227 475 L 241 482 L 256 482 L 267 477 L 273 472 L 279 462 L 281 454 L 281 409 L 280 408 L 281 405 L 281 242 L 276 229 L 268 220 L 260 216 Z"/>
<path d="M 339 142 L 326 148 L 319 155 L 313 167 L 313 530 L 317 540 L 328 551 L 339 556 L 353 556 L 360 554 L 368 549 L 376 540 L 380 531 L 380 514 L 381 513 L 381 456 L 380 455 L 381 450 L 381 171 L 377 159 L 369 149 L 354 142 Z"/>
<path d="M 368 2 L 367 5 L 368 6 L 367 32 L 368 33 L 368 50 L 370 52 L 381 52 L 388 54 L 396 54 L 421 59 L 443 65 L 478 79 L 496 89 L 521 106 L 548 129 L 568 150 L 589 177 L 600 194 L 617 227 L 619 235 L 625 248 L 625 251 L 630 266 L 630 270 L 635 290 L 638 316 L 640 317 L 687 317 L 690 314 L 689 299 L 681 260 L 672 230 L 661 202 L 648 176 L 626 141 L 605 114 L 579 87 L 553 65 L 530 49 L 500 32 L 483 24 L 473 21 L 468 18 L 439 9 L 405 2 L 386 1 L 385 0 L 370 0 Z"/>
<path d="M 326 3 L 322 0 L 288 3 L 246 12 L 217 22 L 168 47 L 165 50 L 154 56 L 134 70 L 108 92 L 81 121 L 61 147 L 45 172 L 30 201 L 21 222 L 9 258 L 1 297 L 1 306 L 0 307 L 1 316 L 3 317 L 51 317 L 53 315 L 55 295 L 62 262 L 77 221 L 91 195 L 113 163 L 141 132 L 183 99 L 220 78 L 234 73 L 239 70 L 263 62 L 275 60 L 288 56 L 323 52 L 326 49 Z"/>
</g>
</svg>
